<?xml version="1.0" encoding="UTF-8" standalone="no"?>
<svg
   viewBox="0 0 7.0520706 7.052074"
   version="1.1"
   id="svg1"
   sodipodi:docname="icon.svg"
   inkscape:version="1.4.3 (0d15f75042, 2025-12-25)"
   width="7.0520706"
   height="7.052074"
   inkscape:export-filename="../watch/resources/launcher_icon~color.png"
   inkscape:export-xdpi="340.32556"
   inkscape:export-ydpi="340.32556"
   xml:space="preserve"
   xmlns:inkscape="http://www.inkscape.org/namespaces/inkscape"
   xmlns:sodipodi="http://sodipodi.sourceforge.net/DTD/sodipodi-0.dtd"
   xmlns="http://www.w3.org/2000/svg"
   xmlns:svg="http://www.w3.org/2000/svg"><defs
     id="defs1" /><sodipodi:namedview
     id="namedview1"
     pagecolor="#ffffff"
     bordercolor="#000000"
     borderopacity="0.25"
     inkscape:showpageshadow="2"
     inkscape:pageopacity="0.0"
     inkscape:pagecheckerboard="0"
     inkscape:deskcolor="#d1d1d1"
     inkscape:zoom="16.690666"
     inkscape:cx="-1.1383608"
     inkscape:cy="14.529079"
     inkscape:window-width="1279"
     inkscape:window-height="1424"
     inkscape:window-x="0"
     inkscape:window-y="0"
     inkscape:window-maximized="1"
     inkscape:current-layer="svg1"
     showgrid="false"
     inkscape:clip-to-page="false" /><path
     d="M 1.093071,0 H 1.007441 C 0.451046,0 0,0.4510459 0,1.0074391 V 6.044635 c 0,0.559129 0.453348,1.007439 1.007439,1.007439 h 0.08563 4.8659324 0.08563 c 0.556393,0 1.007439,-0.451046 1.007439,-1.007439 V 1.0074391 C 7.0520704,0.4483104 6.5987224,0 6.0446314,0 h -0.08563 M 1.007437,1.0074391 H 6.0446334 V 6.044635 H 1.007437 Z"
     id="path1-2"
     style="stroke-width:0.50372" /><path
     d="m 1.5075023,1.7537511 h 4.1376873 v 0.517211 H 1.5075023 v -0.517211 m 0,1.0344219 H 5.6451896 V 3.3053839 H 1.5075023 V 2.788173 m 0,1.0344218 H 5.6451896 V 4.3398057 H 1.5075023 V 3.8225948 m 0,1.0344218 H 4.0935569 V 5.3742275 H 1.5075023 Z"
     id="path1"
     style="stroke-width:0.258605" /></svg>
